<?xml version="1.0" encoding="UTF-8" standalone="no"?>
<!DOCTYPE svg PUBLIC "-//W3C//DTD SVG 1.1//EN" "http://www.w3.org/Graphics/SVG/1.1/DTD/svg11.dtd">
<!-- Created with Vectornator (http://vectornator.io/) -->
<svg height="100%" stroke-miterlimit="10" style="fill-rule:nonzero;clip-rule:evenodd;stroke-linecap:round;stroke-linejoin:round;" version="1.1" viewBox="0 0 1920 1080" width="100%" xml:space="preserve" xmlns="http://www.w3.org/2000/svg" xmlns:vectornator="http://vectornator.io" xmlns:xlink="http://www.w3.org/1999/xlink">
<defs>
<clipPath id="TextBounds">
<rect height="188.509" width="382.936" x="666.598" y="499.805"/>
</clipPath>
<clipPath id="TextBounds_2">
<rect height="188.509" width="382.936" x="724.488" y="348.649"/>
</clipPath>
<clipPath id="TextBounds_3">
<rect height="452.649" width="1270.42" x="512.947" y="420.444"/>
</clipPath>
</defs>
<g id="圖層1" vectornator:layerName="圖層1">
<path d="M1001.22 540.711L981.532 540.711L957.514 573.187L933.496 540.711L913.811 540.711L946.013 586.178L913.811 631.645L933.496 631.645L957.514 599.168L981.532 631.645L1001.22 631.645L969.015 586.178L1001.22 540.711Z" fill="none" opacity="1" stroke="#000000" stroke-linecap="butt" stroke-linejoin="round" stroke-width="2"/>
<path clip-path="url(#TextBounds)" d="M871.212 570.62L871.212 525.795L893.21 525.795L893.21 643.016L871.212 643.016L871.212 630.511C868.852 635.383 865.801 639.049 862.059 641.51C858.317 643.971 853.91 645.201 848.838 645.201C839.195 645.201 831.712 641.334 826.388 633.6C821.064 625.865 818.402 614.967 818.402 600.904C818.402 586.641 821.102 575.692 826.501 568.058C831.9 560.424 839.597 556.607 849.591 556.607C854.111 556.607 858.167 557.775 861.758 560.11C865.349 562.446 868.5 565.949 871.212 570.62ZM840.476 601.055C840.476 609.191 841.832 615.569 844.544 620.19C847.256 624.811 850.997 627.121 855.769 627.121C860.54 627.121 864.307 624.811 867.069 620.19C869.831 615.569 871.212 609.191 871.212 601.055C871.212 592.919 869.831 586.54 867.069 581.92C864.307 577.299 860.54 574.989 855.769 574.989C850.997 574.989 847.256 577.299 844.544 581.92C841.832 586.54 840.476 592.919 840.476 601.055Z" fill="#000000" opacity="1" stroke="none"/>
<path d="M1010.98 515.688L1012.98 519.908L958.186 520.04L814.991 520.385L812.983 516.165L1010.98 515.688Z" fill="#000000" fill-rule="nonzero" opacity="1" stroke="none"/>
<path clip-path="url(#TextBounds_2)" d="M929.102 419.464L929.102 374.64L951.099 374.64L951.099 491.861L929.102 491.861L929.102 479.355C926.741 484.227 923.69 487.893 919.948 490.354C916.207 492.815 911.8 494.045 906.727 494.045C897.084 494.045 889.601 490.178 884.277 482.444C878.954 474.709 876.292 463.811 876.292 449.748C876.292 435.485 878.991 424.536 884.39 416.903C889.789 409.269 897.486 405.452 907.481 405.452C912.001 405.452 916.056 406.619 919.647 408.955C923.238 411.29 926.39 414.793 929.102 419.464ZM898.365 449.899C898.365 458.035 899.721 464.414 902.433 469.034C905.145 473.655 908.887 475.965 913.658 475.965C918.429 475.965 922.196 473.655 924.958 469.034C927.721 464.414 929.102 458.035 929.102 449.899C929.102 441.763 927.721 435.385 924.958 430.764C922.196 426.144 918.429 423.833 913.658 423.833C908.887 423.833 905.145 426.144 902.433 430.764C899.721 435.385 898.365 441.763 898.365 449.899Z" fill="#000000" opacity="1" stroke="none"/>
<g fill="#000000" opacity="1" stroke="none">
<path clip-path="url(#TextBounds_3)" d="M1074.94 463.092C1071.25 466.977 1067.91 471.313 1064.92 476.099C1061.94 480.885 1059.33 485.837 1057.1 490.955C1054.88 496.072 1053 501.237 1051.49 506.45C1049.97 511.662 1048.88 516.733 1048.22 521.661C1047.46 527.252 1047.13 532.583 1047.22 537.654C1047.32 542.724 1047.82 547.676 1048.72 552.509C1049.62 557.342 1050.9 562.057 1052.55 566.654C1054.21 571.25 1056.18 575.87 1058.45 580.514L1051.2 584.779C1048.55 580.23 1046.32 575.373 1044.52 570.208C1042.72 565.043 1041.32 559.759 1040.33 554.357C1039.33 548.955 1038.79 543.506 1038.69 538.009C1038.6 532.512 1038.93 527.063 1039.69 521.661C1041.3 510.383 1044.59 499.247 1049.57 488.254C1054.54 477.26 1060.78 467.356 1068.26 458.542L1074.94 463.092Z"/>
<path clip-path="url(#TextBounds_3)" d="M1084.61 496.925L1093.14 496.925L1084.04 562.602L1075.51 562.602L1084.61 496.925ZM1086.17 470.91C1086.46 469.11 1087.29 467.593 1088.66 466.361C1090.04 465.129 1091.62 464.513 1093.42 464.513C1095.22 464.513 1096.67 465.129 1097.76 466.361C1098.85 467.593 1099.25 469.11 1098.97 470.91C1098.78 472.711 1097.97 474.227 1096.55 475.459C1095.13 476.691 1093.52 477.307 1091.72 477.307C1089.92 477.307 1088.5 476.691 1087.45 475.459C1086.41 474.227 1085.98 472.711 1086.17 470.91Z"/>
<path clip-path="url(#TextBounds_3)" d="M1164.5 552.936C1160.71 556.821 1156.66 559.688 1152.35 561.536C1148.04 563.384 1143.51 564.308 1138.77 564.308C1133.75 564.308 1129.22 563.455 1125.2 561.749C1121.17 560.043 1117.85 557.65 1115.25 554.57C1112.64 551.49 1110.77 547.842 1109.63 543.624C1108.49 539.407 1108.3 534.787 1109.06 529.764C1109.73 524.741 1111.22 520.121 1113.54 515.903C1115.86 511.686 1118.75 508.037 1122.21 504.957C1125.67 501.877 1129.65 499.484 1134.15 497.778C1138.65 496.072 1143.42 495.219 1148.44 495.219C1153.27 495.219 1157.61 496.214 1161.45 498.205C1165.29 500.195 1168.58 502.991 1171.33 506.592L1163.79 511.71C1161.61 508.961 1159.2 506.805 1156.54 505.241C1153.89 503.678 1150.86 502.896 1147.44 502.896C1143.46 502.896 1139.77 503.607 1136.36 505.028C1132.94 506.45 1129.94 508.369 1127.33 510.786C1124.72 513.202 1122.59 516.045 1120.93 519.315C1119.27 522.585 1118.16 526.068 1117.59 529.764C1117.02 533.46 1117.12 536.943 1117.88 540.212C1118.63 543.482 1119.96 546.325 1121.86 548.742C1123.75 551.159 1126.22 553.078 1129.25 554.499C1132.28 555.921 1135.79 556.632 1139.77 556.632C1143.37 556.632 1146.78 555.802 1150 554.144C1153.23 552.485 1156.12 550.282 1158.67 547.534L1164.5 552.936Z"/>
<path clip-path="url(#TextBounds_3)" d="M1191.66 455.131L1200.19 455.131L1190.09 526.778L1226.63 497.067L1239.14 497.067L1201.18 527.063L1234.02 562.602L1221.08 562.602L1189.95 527.916L1185.12 562.602L1176.59 562.602L1191.66 455.131Z"/>
<path clip-path="url(#TextBounds_3)" d="M1232.88 580.23C1236.48 576.344 1239.78 572.032 1242.76 567.294C1245.75 562.555 1248.35 557.627 1250.58 552.509C1252.81 547.391 1254.68 542.203 1256.2 536.943C1257.71 531.683 1258.8 526.589 1259.47 521.661C1260.22 516.164 1260.55 510.857 1260.46 505.739C1260.37 500.621 1259.87 495.646 1258.97 490.812C1258.07 485.979 1256.79 481.264 1255.13 476.668C1253.47 472.071 1251.5 467.451 1249.23 462.807L1256.48 458.542C1259.13 463.092 1261.36 467.949 1263.16 473.114C1264.96 478.279 1266.36 483.562 1267.35 488.964C1268.35 494.366 1268.89 499.816 1268.99 505.313C1269.08 510.809 1268.75 516.259 1267.99 521.661C1266.38 532.939 1263.09 544.074 1258.11 555.068C1253.14 566.062 1246.91 575.965 1239.42 584.779L1232.88 580.23Z"/>
</g>
</g>
</svg>
